<svg xmlns="http://www.w3.org/2000/svg" width="1600" height="900" viewBox="0 0 1600 900" role="img" aria-label="DDP SUPPLY Materials · service · equipment for maritime">
  <defs>
    <linearGradient id="g" x1="0" x2="1" y1="0" y2="1"><stop offset="0" stop-color="#0B3558"/><stop offset="1" stop-color="#efe9dc"/></linearGradient>
    <pattern id="waves" width="120" height="48" patternUnits="userSpaceOnUse"><path d="M0 24 C30 0 60 48 90 24 C105 12 114 12 120 18" fill="none" stroke="rgba(255,255,255,.18)" stroke-width="6"/></pattern>
  </defs>
  <rect width="1600" height="900" fill="url(#g)"/>
  <rect width="1600" height="900" fill="url(#waves)" opacity=".75"/>
  <rect x="96" y="96" width="1408" height="708" fill="rgba(239,233,220,.92)" stroke="#1a1a1a" stroke-width="8"/>
  <path d="M1110 282 L1348 282 L1420 380 L1040 380 Z" fill="#4CB3D4" stroke="#1a1a1a" stroke-width="8"/>
  <path d="M1158 282 L1202 184 L1280 282" fill="none" stroke="#1a1a1a" stroke-width="10" stroke-linejoin="round"/>
  <circle cx="1296" cy="544" r="90" fill="#4CB3D4" stroke="#1a1a1a" stroke-width="8"/>
  <circle cx="1296" cy="544" r="34" fill="#efe9dc" stroke="#1a1a1a" stroke-width="8"/>
  <text x="180" y="246" fill="#1a1a1a" font-family="Arial, Helvetica, sans-serif" font-size="48" font-weight="700" letter-spacing="6">KTB MEDIA CASE STUDY</text>
  <text x="180" y="430" fill="#1a1a1a" font-family="Georgia, 'Times New Roman', serif" font-size="118" font-weight="700">DDP SUPPLY</text>
  <text x="186" y="532" fill="#1a1a1a" font-family="Arial, Helvetica, sans-serif" font-size="44" font-weight="700">Materials · service · equipment for maritime</text>
  <path d="M182 628 H1418" stroke="#1a1a1a" stroke-width="10"/>
  <text x="180" y="722" fill="#1a1a1a" font-family="Arial, Helvetica, sans-serif" font-size="34" font-weight="700" letter-spacing="3">Gdynia · marine B2B</text>
</svg>
